<svg data-v-48faa7cd="" version="1.0" xmlns="http://www.w3.org/2000/svg" width="100%" height="100%"  color-interpolation-filters="sRGB"  viewBox="0 0 200 150">
  <g  fill="#009bff" class="bordersvg" transform="translate(2,50)"><polyline stroke="#009bff" stroke-width="3" fill-opacity="0" points="61.80999755859375,20 61.80999755859375,0 0,0 0,80.43999862670898 61.80999755859375,80.43999862670898 61.80999755859375,60.439998626708984"></polyline> <g transform="translate(0,20)"> <!----> <g transform="translate(10,3)"><g><g><path transform="translate(-0.084,27.3)" d="M16.51-6.22C15.62-5.71 14.36-5.38 13.44-5.38C11.68-5.38 10.63-6.26 10.63-8.44L10.63-15.75L16.84-15.75L16.84-21.08L10.63-21.08L10.63-27.30L3.91-27.30L3.91-21.08L0.08-21.08L0.08-15.75L3.91-15.75L3.91-7.77C3.91-2.23 7.06 0.63 12.31 0.63C14.70 0.63 16.42-0.04 18.06-0.92ZM40.87-10.54C40.74-17.43 35.95-21.71 29.99-21.71C23.86-21.71 18.82-17.18 18.82-10.54C18.82-3.86 23.86 0.63 29.95 0.63C34.78 0.63 38.60-1.51 40.40-5.96L34.44-7.18C33.31-5.12 31.50-4.75 29.95-4.75C27.68-4.75 25.96-6.30 25.41-8.82L40.87-8.82ZM29.99-16.25C31.92-16.25 33.60-15.20 34.23-12.94L25.54-12.94C26.17-15.08 28.10-16.25 29.99-16.25ZM58.34-21.38C54.89-21.38 52.58-19.57 51.07-17.05L51.07-21.08L44.35-21.08L44.35 0L51.07 0L51.07-6.59C51.07-12.05 53.63-14.49 58.34-14.49L59.56-14.49L59.85-21.21C59.35-21.34 58.93-21.38 58.34-21.38ZM76.69-21.38C73.25-21.38 70.94-19.57 69.43-17.05L69.43-21.08L62.71-21.08L62.71 0L69.43 0L69.43-6.59C69.43-12.05 71.99-14.49 76.69-14.49L77.91-14.49L78.20-21.21C77.70-21.34 77.28-21.38 76.69-21.38ZM103.70-21.13L96.47-21.13L91.14-8.82L86.14-21.13L78.92-21.13L87.65-0.71L84.25 7.14L91.52 7.14Z"></path></g> <!----></g> <!----></g></g></g>
  
  </svg>